<svg width="1007" height="1007" viewBox="0 0 1007 1007" fill="none" xmlns="http://www.w3.org/2000/svg">
<path d="M62.7039 566.055C28.074 531.425 28.0741 475.278 62.7039 440.649L440.647 62.7047C475.277 28.0748 531.423 28.0748 566.053 62.7047L943.996 440.649C978.626 475.278 978.626 531.425 943.996 566.055L566.053 943.999C531.423 978.628 475.277 978.628 440.647 943.999L62.7039 566.055Z" fill="#51C0C0"/>
<path d="M305.134 587.634C292.806 587.634 281.937 584.957 272.529 579.604C263.12 574.251 255.659 566.789 250.143 557.219C244.79 547.648 242.114 536.699 242.114 524.37C242.114 512.042 244.79 501.093 250.143 491.522C255.659 481.951 263.12 474.49 272.529 469.137C281.937 463.784 292.806 461.107 305.134 461.107C320.544 461.107 333.521 465.162 344.065 473.273C354.609 481.222 361.341 492.252 364.261 506.365H331.412C329.79 500.525 326.546 495.983 321.68 492.739C316.975 489.332 311.379 487.629 304.89 487.629C296.293 487.629 288.994 490.873 282.992 497.362C276.99 503.85 273.989 512.853 273.989 524.37C273.989 535.888 276.99 544.891 282.992 551.379C288.994 557.868 296.293 561.112 304.89 561.112C311.379 561.112 316.975 559.49 321.68 556.245C326.546 553.001 329.79 548.378 331.412 542.376H364.261C361.341 556.002 354.609 566.952 344.065 575.225C333.521 583.497 320.544 587.634 305.134 587.634ZM406.99 638.245L434.972 576.684H427.673L380.712 464.027H414.533L448.355 548.946L483.636 464.027H516.728L440.082 638.245H406.99ZM608.625 587.634C599.541 587.634 591.593 585.931 584.78 582.524C577.967 579.118 572.452 574.332 568.234 568.168L564.828 584.714H537.089V409.523H568.234V481.303C572.127 475.95 577.237 471.245 583.563 467.19C590.052 463.135 598.406 461.107 608.625 461.107C619.98 461.107 630.119 463.865 639.041 469.38C647.962 474.895 655.019 482.438 660.209 492.009C665.4 501.579 667.996 512.448 667.996 524.614C667.996 536.78 665.4 547.648 660.209 557.219C655.019 566.627 647.962 574.089 639.041 579.604C630.119 584.957 619.98 587.634 608.625 587.634ZM602.056 560.382C611.951 560.382 620.143 557.057 626.631 550.406C633.12 543.755 636.364 535.158 636.364 524.614C636.364 514.07 633.12 505.391 626.631 498.578C620.143 491.765 611.951 488.359 602.056 488.359C591.998 488.359 583.726 491.765 577.237 498.578C570.911 505.229 567.747 513.827 567.747 524.37C567.747 534.914 570.911 543.593 577.237 550.406C583.726 557.057 591.998 560.382 602.056 560.382ZM695.818 584.714V464.027H723.557L726.476 486.656C730.856 478.869 736.777 472.705 744.239 468.163C751.863 463.459 760.785 461.107 771.004 461.107V493.955H762.245C755.432 493.955 749.349 495.01 743.996 497.118C738.642 499.227 734.425 502.877 731.343 508.068C728.423 513.259 726.963 520.477 726.963 529.724V584.714H695.818Z" fill="white"/>
</svg>
