<?xml version="1.0" encoding="UTF-8" ?>
<svg version="1.1" width="32" height="32" xmlns="http://www.w3.org/2000/svg" shape-rendering="crispEdges">
<rect x="2" y="0" width="5" height="1" fill="#75A743" />
<rect x="7" y="0" width="5" height="1" fill="#02030D" />
<rect x="12" y="0" width="8" height="1" fill="#75A743" />
<rect x="20" y="0" width="10" height="1" fill="#66AA2A" />
<rect x="1" y="1" width="1" height="1" fill="#75A743" />
<rect x="2" y="1" width="4" height="1" fill="#CFDB89" />
<rect x="6" y="1" width="1" height="1" fill="#02030D" />
<rect x="7" y="1" width="1" height="4" fill="#152B35" />
<rect x="8" y="1" width="2" height="1" fill="#314950" />
<rect x="10" y="1" width="2" height="1" fill="#4E7479" />
<rect x="12" y="1" width="1" height="1" fill="#02030D" />
<rect x="13" y="1" width="5" height="1" fill="#CFDB89" />
<rect x="18" y="1" width="12" height="4" fill="#A1CD40" />
<rect x="30" y="1" width="1" height="1" fill="#66AA2A" />
<rect x="0" y="2" width="1" height="6" fill="#75A743" />
<rect x="1" y="2" width="3" height="1" fill="#CFDB89" />
<rect x="4" y="2" width="2" height="1" fill="#02030D" />
<rect x="6" y="2" width="1" height="2" fill="#314950" />
<rect x="8" y="2" width="1" height="1" fill="#EA9C1D" />
<rect x="9" y="2" width="2" height="1" fill="#314950" />
<rect x="11" y="2" width="2" height="1" fill="#4E7479" />
<rect x="13" y="2" width="1" height="1" fill="#02030D" />
<rect x="14" y="2" width="4" height="1" fill="#A1CD40" />
<rect x="30" y="2" width="1" height="6" fill="#A1CD40" />
<rect x="31" y="2" width="1" height="5" fill="#66AA2A" />
<rect x="1" y="3" width="1" height="1" fill="#CFDB89" />
<rect x="2" y="3" width="2" height="1" fill="#02030D" />
<rect x="4" y="3" width="1" height="1" fill="#4E7479" />
<rect x="5" y="3" width="1" height="1" fill="#314950" />
<rect x="8" y="3" width="1" height="1" fill="#CB7300" />
<rect x="9" y="3" width="1" height="3" fill="#152B35" />
<rect x="10" y="3" width="2" height="1" fill="#314950" />
<rect x="12" y="3" width="2" height="1" fill="#4E7479" />
<rect x="14" y="3" width="1" height="1" fill="#02030D" />
<rect x="15" y="3" width="3" height="1" fill="#A1CD40" />
<rect x="1" y="4" width="1" height="1" fill="#02030D" />
<rect x="2" y="4" width="4" height="1" fill="#060C1A" />
<rect x="6" y="4" width="1" height="2" fill="#0A1724" />
<rect x="8" y="4" width="1" height="2" fill="#152B35" />
<rect x="10" y="4" width="1" height="3" fill="#152B35" />
<rect x="11" y="4" width="3" height="1" fill="#314950" />
<rect x="14" y="4" width="1" height="1" fill="#4E7479" />
<rect x="15" y="4" width="3" height="1" fill="#02030D" />
<rect x="1" y="5" width="1" height="3" fill="#CFDB89" />
<rect x="2" y="5" width="4" height="1" fill="#02030D" />
<rect x="7" y="5" width="1" height="1" fill="#0A1724" />
<rect x="11" y="5" width="2" height="3" fill="#152B35" />
<rect x="13" y="5" width="1" height="1" fill="#314950" />
<rect x="14" y="5" width="2" height="1" fill="#060C1A" />
<rect x="16" y="5" width="2" height="1" fill="#4E7479" />
<rect x="18" y="5" width="3" height="1" fill="#02030D" />
<rect x="21" y="5" width="9" height="1" fill="#A1CD40" />
<rect x="2" y="6" width="4" height="1" fill="#CFDB89" />
<rect x="6" y="6" width="1" height="1" fill="#02030D" />
<rect x="7" y="6" width="1" height="1" fill="#0C1A37" />
<rect x="8" y="6" width="2" height="1" fill="#0A1724" />
<rect x="13" y="6" width="1" height="1" fill="#060C1A" />
<rect x="14" y="6" width="1" height="3" fill="#152B35" />
<rect x="15" y="6" width="4" height="1" fill="#314950" />
<rect x="19" y="6" width="2" height="1" fill="#4E7479" />
<rect x="21" y="6" width="2" height="1" fill="#02030D" />
<rect x="23" y="6" width="7" height="1" fill="#A1CD40" />
<rect x="2" y="7" width="1" height="1" fill="#CFDB89" />
<rect x="3" y="7" width="4" height="7" fill="#A1CD40" />
<rect x="7" y="7" width="1" height="1" fill="#02030D" />
<rect x="8" y="7" width="1" height="1" fill="#0C1A37" />
<rect x="9" y="7" width="2" height="1" fill="#0A1724" />
<rect x="13" y="7" width="1" height="1" fill="#152B35" />
<rect x="15" y="7" width="1" height="2" fill="#152B35" />
<rect x="16" y="7" width="1" height="1" fill="#4E7479" />
<rect x="17" y="7" width="3" height="1" fill="#314950" />
<rect x="20" y="7" width="3" height="1" fill="#4E7479" />
<rect x="23" y="7" width="2" height="1" fill="#02030D" />
<rect x="25" y="7" width="5" height="1" fill="#A1CD40" />
<rect x="31" y="7" width="1" height="3" fill="#27851C" />
<rect x="0" y="8" width="1" height="7" fill="#66AA2A" />
<rect x="1" y="8" width="2" height="7" fill="#A1CD40" />
<rect x="7" y="8" width="1" height="5" fill="#A1CD40" />
<rect x="8" y="8" width="1" height="1" fill="#02030D" />
<rect x="9" y="8" width="2" height="1" fill="#0C1A37" />
<rect x="11" y="8" width="1" height="1" fill="#152B35" />
<rect x="12" y="8" width="1" height="1" fill="#0A1724" />
<rect x="13" y="8" width="1" height="1" fill="#02030D" />
<rect x="16" y="8" width="1" height="2" fill="#152B35" />
<rect x="17" y="8" width="2" height="1" fill="#4E7479" />
<rect x="19" y="8" width="3" height="1" fill="#314950" />
<rect x="22" y="8" width="3" height="1" fill="#4E7479" />
<rect x="25" y="8" width="3" height="1" fill="#02030D" />
<rect x="28" y="8" width="3" height="1" fill="#66AA2A" />
<rect x="8" y="9" width="1" height="4" fill="#A1CD40" />
<rect x="9" y="9" width="1" height="1" fill="#060C1A" />
<rect x="10" y="9" width="3" height="1" fill="#0C1A37" />
<rect x="13" y="9" width="1" height="1" fill="#0A1724" />
<rect x="14" y="9" width="2" height="1" fill="#02030D" />
<rect x="17" y="9" width="3" height="1" fill="#152B35" />
<rect x="20" y="9" width="5" height="1" fill="#314950" />
<rect x="25" y="9" width="3" height="1" fill="#4E7479" />
<rect x="28" y="9" width="2" height="1" fill="#02030D" />
<rect x="30" y="9" width="1" height="1" fill="#66AA2A" />
<rect x="9" y="10" width="1" height="1" fill="#02030D" />
<rect x="10" y="10" width="2" height="1" fill="#060C1A" />
<rect x="12" y="10" width="2" height="1" fill="#0C1A37" />
<rect x="14" y="10" width="2" height="1" fill="#0A1724" />
<rect x="16" y="10" width="2" height="1" fill="#02030D" />
<rect x="18" y="10" width="4" height="1" fill="#152B35" />
<rect x="22" y="10" width="2" height="1" fill="#4E7479" />
<rect x="24" y="10" width="4" height="1" fill="#314950" />
<rect x="28" y="10" width="2" height="1" fill="#0C1A37" />
<rect x="30" y="10" width="2" height="1" fill="#02030D" />
<rect x="9" y="11" width="1" height="2" fill="#A1CD40" />
<rect x="10" y="11" width="2" height="1" fill="#02030D" />
<rect x="12" y="11" width="1" height="1" fill="#060C1A" />
<rect x="13" y="11" width="2" height="1" fill="#0C1A37" />
<rect x="15" y="11" width="6" height="1" fill="#0A1724" />
<rect x="21" y="11" width="1" height="2" fill="#02030D" />
<rect x="22" y="11" width="2" height="1" fill="#152B35" />
<rect x="24" y="11" width="3" height="1" fill="#0C1A37" />
<rect x="27" y="11" width="4" height="1" fill="#0A1724" />
<rect x="31" y="11" width="1" height="7" fill="#27851C" />
<rect x="10" y="12" width="2" height="1" fill="#A1CD40" />
<rect x="12" y="12" width="1" height="1" fill="#02030D" />
<rect x="13" y="12" width="1" height="1" fill="#060C1A" />
<rect x="14" y="12" width="1" height="1" fill="#0C1A37" />
<rect x="15" y="12" width="3" height="1" fill="#02030D" />
<rect x="18" y="12" width="1" height="2" fill="#152B35" />
<rect x="19" y="12" width="2" height="1" fill="#02030D" />
<rect x="22" y="12" width="1" height="1" fill="#02030D" />
<rect x="23" y="12" width="1" height="1" fill="#060C1A" />
<rect x="24" y="12" width="1" height="1" fill="#0C1A37" />
<rect x="25" y="12" width="2" height="1" fill="#060C1A" />
<rect x="27" y="12" width="1" height="1" fill="#0A1724" />
<rect x="28" y="12" width="3" height="7" fill="#66AA2A" />
<rect x="7" y="13" width="6" height="1" fill="#66AA2A" />
<rect x="13" y="13" width="1" height="2" fill="#02030D" />
<rect x="14" y="13" width="1" height="1" fill="#060C1A" />
<rect x="15" y="13" width="2" height="1" fill="#66AA2A" />
<rect x="17" y="13" width="1" height="2" fill="#02030D" />
<rect x="19" y="13" width="1" height="2" fill="#02030D" />
<rect x="20" y="13" width="8" height="1" fill="#66AA2A" />
<rect x="3" y="14" width="1" height="1" fill="#A1CD40" />
<rect x="4" y="14" width="3" height="1" fill="#66AA2A" />
<rect x="7" y="14" width="2" height="1" fill="#682326" />
<rect x="9" y="14" width="4" height="1" fill="#4D2B32" />
<rect x="14" y="14" width="1" height="1" fill="#314950" />
<rect x="15" y="14" width="2" height="1" fill="#4D2B32" />
<rect x="18" y="14" width="1" height="1" fill="#314950" />
<rect x="20" y="14" width="5" height="1" fill="#4D2B32" />
<rect x="25" y="14" width="3" height="1" fill="#66AA2A" />
<rect x="0" y="15" width="1" height="11" fill="#27851C" />
<rect x="1" y="15" width="5" height="1" fill="#66AA2A" />
<rect x="6" y="15" width="1" height="1" fill="#682326" />
<rect x="7" y="15" width="3" height="1" fill="#EBD5B0" />
<rect x="10" y="15" width="2" height="1" fill="#7A4841" />
<rect x="12" y="15" width="1" height="2" fill="#02030D" />
<rect x="13" y="15" width="1" height="1" fill="#060C1A" />
<rect x="14" y="15" width="1" height="1" fill="#02030D" />
<rect x="15" y="15" width="1" height="2" fill="#7A4841" />
<rect x="16" y="15" width="1" height="1" fill="#02030D" />
<rect x="17" y="15" width="1" height="1" fill="#152B35" />
<rect x="18" y="15" width="1" height="2" fill="#060C1A" />
<rect x="19" y="15" width="5" height="1" fill="#7A4841" />
<rect x="24" y="15" width="2" height="1" fill="#4D2B32" />
<rect x="26" y="15" width="2" height="1" fill="#66AA2A" />
<rect x="1" y="16" width="4" height="9" fill="#66AA2A" />
<rect x="5" y="16" width="1" height="11" fill="#682326" />
<rect x="6" y="16" width="1" height="6" fill="#EBD5B0" />
<rect x="7" y="16" width="3" height="1" fill="#CA936E" />
<rect x="10" y="16" width="2" height="1" fill="#DFB591" />
<rect x="13" y="16" width="1" height="1" fill="#7A4841" />
<rect x="14" y="16" width="1" height="1" fill="#060C1A" />
<rect x="16" y="16" width="1" height="1" fill="#060C1A" />
<rect x="17" y="16" width="1" height="1" fill="#7A4841" />
<rect x="19" y="16" width="4" height="1" fill="#7A4841" />
<rect x="23" y="16" width="1" height="12" fill="#DFB591" />
<rect x="24" y="16" width="2" height="11" fill="#CA936E" />
<rect x="26" y="16" width="1" height="1" fill="#682326" />
<rect x="27" y="16" width="1" height="1" fill="#66AA2A" />
<rect x="7" y="17" width="1" height="10" fill="#CA936E" />
<rect x="8" y="17" width="1" height="9" fill="#924C45" />
<rect x="9" y="17" width="3" height="1" fill="#57C2D7" />
<rect x="12" y="17" width="9" height="1" fill="#3092C0" />
<rect x="21" y="17" width="1" height="8" fill="#B87550" />
<rect x="22" y="17" width="1" height="9" fill="#EBD5B0" />
<rect x="26" y="17" width="1" height="9" fill="#CA936E" />
<rect x="27" y="17" width="1" height="9" fill="#682326" />
<rect x="9" y="18" width="1" height="1" fill="#57C2D7" />
<rect x="10" y="18" width="1" height="2" fill="#EBEEE9" />
<rect x="11" y="18" width="3" height="1" fill="#57C2D7" />
<rect x="14" y="18" width="3" height="1" fill="#3092C0" />
<rect x="17" y="18" width="2" height="2" fill="#EBEEE9" />
<rect x="19" y="18" width="2" height="1" fill="#3092C0" />
<rect x="31" y="18" width="1" height="7" fill="#005724" />
<rect x="9" y="19" width="1" height="1" fill="#EBEEE9" />
<rect x="11" y="19" width="1" height="1" fill="#EBEEE9" />
<rect x="12" y="19" width="4" height="1" fill="#57C2D7" />
<rect x="16" y="19" width="1" height="1" fill="#EBEEE9" />
<rect x="19" y="19" width="1" height="1" fill="#EBEEE9" />
<rect x="20" y="19" width="1" height="2" fill="#3092C0" />
<rect x="28" y="19" width="3" height="7" fill="#27851C" />
<rect x="9" y="20" width="6" height="1" fill="#95E0DD" />
<rect x="15" y="20" width="4" height="1" fill="#57C2D7" />
<rect x="19" y="20" width="1" height="1" fill="#3092C0" />
<rect x="9" y="21" width="2" height="1" fill="#95E0DD" />
<rect x="11" y="21" width="3" height="2" fill="#66AA2A" />
<rect x="14" y="21" width="2" height="1" fill="#A1CD40" />
<rect x="16" y="21" width="2" height="1" fill="#95E0DD" />
<rect x="18" y="21" width="3" height="1" fill="#57C2D7" />
<rect x="6" y="22" width="1" height="6" fill="#DFB591" />
<rect x="9" y="22" width="2" height="1" fill="#66AA2A" />
<rect x="14" y="22" width="2" height="2" fill="#66AA2A" />
<rect x="16" y="22" width="3" height="1" fill="#A1CD40" />
<rect x="19" y="22" width="2" height="1" fill="#95E0DD" />
<rect x="9" y="23" width="3" height="2" fill="#27851C" />
<rect x="12" y="23" width="2" height="1" fill="#66AA2A" />
<rect x="16" y="23" width="2" height="1" fill="#66AA2A" />
<rect x="18" y="23" width="3" height="1" fill="#A1CD40" />
<rect x="12" y="24" width="5" height="1" fill="#27851C" />
<rect x="17" y="24" width="4" height="1" fill="#66AA2A" />
<rect x="1" y="25" width="1" height="1" fill="#66AA2A" />
<rect x="2" y="25" width="3" height="2" fill="#27851C" />
<rect x="9" y="25" width="13" height="1" fill="#924C45" />
<rect x="31" y="25" width="1" height="5" fill="#19332D" />
<rect x="0" y="26" width="1" height="4" fill="#19332D" />
<rect x="1" y="26" width="1" height="4" fill="#27851C" />
<rect x="8" y="26" width="15" height="1" fill="#CA936E" />
<rect x="26" y="26" width="1" height="1" fill="#682326" />
<rect x="27" y="26" width="2" height="1" fill="#27851C" />
<rect x="29" y="26" width="2" height="4" fill="#005724" />
<rect x="2" y="27" width="2" height="1" fill="#27851C" />
<rect x="4" y="27" width="1" height="1" fill="#682326" />
<rect x="5" y="27" width="1" height="1" fill="#DFB591" />
<rect x="7" y="27" width="16" height="1" fill="#DFB591" />
<rect x="24" y="27" width="1" height="1" fill="#DFB591" />
<rect x="25" y="27" width="1" height="5" fill="#682326" />
<rect x="26" y="27" width="3" height="4" fill="#005724" />
<rect x="2" y="28" width="1" height="1" fill="#27851C" />
<rect x="3" y="28" width="1" height="1" fill="#682326" />
<rect x="4" y="28" width="1" height="1" fill="#DFB591" />
<rect x="5" y="28" width="1" height="1" fill="#CA936E" />
<rect x="6" y="28" width="1" height="1" fill="#924C45" />
<rect x="7" y="28" width="1" height="1" fill="#CA936E" />
<rect x="8" y="28" width="1" height="1" fill="#924C45" />
<rect x="9" y="28" width="1" height="1" fill="#CA936E" />
<rect x="10" y="28" width="1" height="1" fill="#924C45" />
<rect x="11" y="28" width="1" height="1" fill="#CA936E" />
<rect x="12" y="28" width="1" height="1" fill="#924C45" />
<rect x="13" y="28" width="1" height="1" fill="#CA936E" />
<rect x="14" y="28" width="1" height="1" fill="#924C45" />
<rect x="15" y="28" width="1" height="1" fill="#CA936E" />
<rect x="16" y="28" width="1" height="1" fill="#924C45" />
<rect x="17" y="28" width="1" height="1" fill="#CA936E" />
<rect x="18" y="28" width="1" height="1" fill="#924C45" />
<rect x="19" y="28" width="1" height="1" fill="#CA936E" />
<rect x="20" y="28" width="1" height="1" fill="#924C45" />
<rect x="21" y="28" width="2" height="1" fill="#DFB591" />
<rect x="23" y="28" width="2" height="4" fill="#CA936E" />
<rect x="2" y="29" width="1" height="2" fill="#682326" />
<rect x="3" y="29" width="1" height="2" fill="#DFB591" />
<rect x="4" y="29" width="1" height="1" fill="#CA936E" />
<rect x="5" y="29" width="1" height="1" fill="#924C45" />
<rect x="6" y="29" width="1" height="1" fill="#CA936E" />
<rect x="7" y="29" width="1" height="1" fill="#924C45" />
<rect x="8" y="29" width="1" height="1" fill="#CA936E" />
<rect x="9" y="29" width="1" height="1" fill="#924C45" />
<rect x="10" y="29" width="1" height="1" fill="#CA936E" />
<rect x="11" y="29" width="1" height="1" fill="#924C45" />
<rect x="12" y="29" width="1" height="1" fill="#CA936E" />
<rect x="13" y="29" width="1" height="1" fill="#924C45" />
<rect x="14" y="29" width="1" height="1" fill="#CA936E" />
<rect x="15" y="29" width="1" height="1" fill="#924C45" />
<rect x="16" y="29" width="1" height="1" fill="#CA936E" />
<rect x="17" y="29" width="1" height="1" fill="#924C45" />
<rect x="18" y="29" width="1" height="1" fill="#CA936E" />
<rect x="19" y="29" width="1" height="1" fill="#924C45" />
<rect x="20" y="29" width="2" height="2" fill="#DFB591" />
<rect x="22" y="29" width="1" height="3" fill="#CA936E" />
<rect x="1" y="30" width="1" height="1" fill="#19332D" />
<rect x="4" y="30" width="16" height="1" fill="#DFB591" />
<rect x="29" y="30" width="1" height="1" fill="#005724" />
<rect x="30" y="30" width="1" height="1" fill="#19332D" />
<rect x="2" y="31" width="1" height="1" fill="#19332D" />
<rect x="3" y="31" width="1" height="1" fill="#682326" />
<rect x="4" y="31" width="2" height="1" fill="#924C45" />
<rect x="6" y="31" width="1" height="1" fill="#CA936E" />
<rect x="7" y="31" width="2" height="1" fill="#924C45" />
<rect x="9" y="31" width="8" height="1" fill="#CA936E" />
<rect x="17" y="31" width="2" height="1" fill="#924C45" />
<rect x="19" y="31" width="2" height="1" fill="#CA936E" />
<rect x="21" y="31" width="1" height="1" fill="#DFB591" />
<rect x="26" y="31" width="4" height="1" fill="#19332D" />
</svg>